<svg xmlns="http://www.w3.org/2000/svg" viewBox="0 0 100 100">
  <rect width="100" height="100" fill="#fff"/>
  <rect x="10" y="10" width="10" height="10" fill="#000"/>
  <rect x="30" y="10" width="10" height="10" fill="#000"/>
  <rect x="50" y="10" width="10" height="10" fill="#000"/>
  <rect x="70" y="10" width="10" height="10" fill="#000"/>
  <rect x="80" y="10" width="10" height="10" fill="#000"/>
  
  <rect x="10" y="20" width="10" height="10" fill="#000"/>
  <rect x="50" y="20" width="10" height="10" fill="#000"/>
  <rect x="80" y="20" width="10" height="10" fill="#000"/>
  
  <rect x="10" y="30" width="10" height="10" fill="#000"/>
  <rect x="30" y="30" width="10" height="10" fill="#000"/>
  <rect x="50" y="30" width="10" height="10" fill="#000"/>
  <rect x="70" y="30" width="10" height="10" fill="#000"/>
  <rect x="80" y="30" width="10" height="10" fill="#000"/>
  
  <rect x="10" y="40" width="10" height="10" fill="#000"/>
  <rect x="50" y="40" width="10" height="10" fill="#000"/>
  <rect x="80" y="40" width="10" height="10" fill="#000"/>
  
  <rect x="10" y="50" width="10" height="10" fill="#000"/>
  <rect x="30" y="50" width="10" height="10" fill="#000"/>
  <rect x="50" y="50" width="10" height="10" fill="#000"/>
  <rect x="70" y="50" width="10" height="10" fill="#000"/>
  <rect x="80" y="50" width="10" height="10" fill="#000"/>
  
  <rect x="30" y="60" width="10" height="10" fill="#000"/>
  <rect x="70" y="60" width="10" height="10" fill="#000"/>
  
  <rect x="10" y="70" width="10" height="10" fill="#000"/>
  <rect x="30" y="70" width="10" height="10" fill="#000"/>
  <rect x="50" y="70" width="10" height="10" fill="#000"/>
  <rect x="70" y="70" width="10" height="10" fill="#000"/>
  <rect x="80" y="70" width="10" height="10" fill="#000"/>
  
  <rect x="10" y="80" width="10" height="10" fill="#000"/>
  <rect x="50" y="80" width="10" height="10" fill="#000"/>
  <rect x="80" y="80" width="10" height="10" fill="#000"/>
  
  <text x="50" y="97" font-family="Arial, sans-serif" font-size="5" fill="#666" text-anchor="middle">Google Play</text>
</svg>
